<svg width="220" height="40" viewBox="0 0 220 40" fill="none" xmlns="http://www.w3.org/2000/svg">
<g clip-path="url(#clip0_4_370)">
<g clip-path="url(#clip1_4_370)">
<g clip-path="url(#clip2_4_370)">
<g clip-path="url(#clip3_4_370)">
<g clip-path="url(#clip4_4_370)">
<g clip-path="url(#clip5_4_370)">
<g clip-path="url(#clip6_4_370)">
<g clip-path="url(#clip7_4_370)">
<path d="M15.7054 29.4154C15.3361 29.8872 14.9423 30.3857 14.5238 30.9108C14.1013 31.4319 13.7361 31.877 13.4284 32.2462C13.0182 31.6719 12.5936 31.0872 12.1546 30.4924C11.7115 29.8975 11.2849 29.2924 10.8746 28.677L10.7208 28.4308C9.77717 29.2308 8.82947 29.8401 7.87768 30.2585C6.92178 30.6811 6.00281 30.8924 5.12076 30.8924C4.44383 30.8924 3.82845 30.7631 3.2746 30.5047C2.72076 30.2503 2.2387 29.8729 1.82845 29.3724C1.41819 28.8678 1.09614 28.2195 0.862294 27.4278C0.624346 26.6401 0.505371 25.6924 0.505371 24.5847C0.505371 23.436 0.648961 22.2257 0.93614 20.9539C1.22332 19.6821 1.61306 18.4206 2.10537 17.1693C2.59768 15.918 3.20281 14.7283 3.92076 13.6001C4.6387 12.4719 5.42845 11.4729 6.28999 10.6031C7.15153 9.72929 8.0746 9.03596 9.05922 8.52314C10.0438 8.01032 11.0695 7.75391 12.1361 7.75391C13.0592 7.75391 13.8243 7.94263 14.4315 8.32006C15.0346 8.7016 15.5064 9.19391 15.8469 9.79698C16.1833 10.4042 16.4233 11.0872 16.5669 11.8462C16.7105 12.6052 16.7823 13.3642 16.7823 14.1231C16.7823 16.1334 16.5361 17.9837 16.0438 19.6739C15.5515 21.3683 14.9156 22.8924 14.1361 24.2462L17.0592 27.6924C16.6079 28.2872 16.1567 28.8616 15.7054 29.4154ZM5.08999 23.7847C5.08999 24.0103 5.13101 24.2462 5.21306 24.4924C5.29511 24.7385 5.40794 24.9539 5.55153 25.1385C5.69511 25.3231 5.87563 25.4811 6.09306 25.6124C6.3064 25.7478 6.53614 25.8154 6.78229 25.8154C7.50024 25.8154 8.15665 25.6206 8.75152 25.2308L7.52076 23.2001C8.38229 22.5437 9.04486 22.0308 9.50845 21.6616C9.96794 21.2924 10.3002 21.0257 10.5054 20.8616C10.7515 20.6565 10.8951 20.5334 10.9361 20.4924L11.6131 21.2616C11.8797 20.5026 12.0951 19.7231 12.2592 18.9231C12.4233 18.1231 12.5054 17.3847 12.5054 16.7078C12.5054 16.4616 12.491 16.1949 12.4623 15.9078C12.4295 15.6206 12.3679 15.3539 12.2777 15.1078C12.1833 14.8616 12.0397 14.6503 11.8469 14.4739C11.65 14.3016 11.3874 14.2154 11.0592 14.2154C10.4028 14.2154 9.79768 14.3795 9.24383 14.7078C8.68999 15.036 8.19358 15.4708 7.7546 16.0124C7.31152 16.558 6.92588 17.1734 6.59768 17.8585C6.26947 18.5478 5.98845 19.2472 5.7546 19.957C5.51665 20.6626 5.3464 21.3539 5.24383 22.0308C5.14127 22.7078 5.08999 23.2924 5.08999 23.7847ZM28.3208 24.7693C28.0336 25.9385 27.6274 26.9334 27.1023 27.7539C26.5813 28.5744 25.9659 29.2513 25.2561 29.7847C24.5505 30.318 23.7977 30.7078 22.9977 30.9539C22.1977 31.2001 21.3977 31.3231 20.5977 31.3231C20.1259 31.3231 19.6438 31.2472 19.1515 31.0954C18.6592 30.9395 18.2182 30.7078 17.8284 30.4001C17.4387 30.0924 17.1146 29.7026 16.8561 29.2308C16.6018 28.759 16.4746 28.2052 16.4746 27.5693C16.4746 27.4872 16.4746 27.4052 16.4746 27.3231C16.4746 27.2411 16.4849 27.159 16.5054 27.077C16.5874 26.236 16.7208 25.2206 16.9054 24.0308C17.09 22.8411 17.2849 21.6001 17.49 20.3078C17.6951 19.0154 17.9208 17.717 18.1669 16.4124C18.4131 15.1119 18.6326 13.9283 18.8254 12.8616C19.0223 11.7949 19.1926 10.9067 19.3361 10.197C19.4797 9.49134 19.572 9.05647 19.6131 8.89237C20.0438 8.85134 20.5567 8.80006 21.1515 8.73852C21.7464 8.67698 22.3002 8.6257 22.8131 8.58468C23.449 8.52314 24.0746 8.4616 24.69 8.40006C24.1567 10.8821 23.6849 13.1283 23.2746 15.1385C23.09 16.0001 22.9095 16.8616 22.7331 17.7231C22.5608 18.5847 22.3967 19.3744 22.2408 20.0924C22.089 20.8103 21.9556 21.4298 21.8408 21.9508C21.73 22.476 21.6377 22.9026 21.5638 23.2308C21.4941 23.559 21.412 23.9734 21.3177 24.4739C21.2274 24.9785 21.1823 25.436 21.1823 25.8462C21.1823 26.1744 21.2643 26.4452 21.4284 26.6585C21.5926 26.876 21.7977 26.9847 22.0438 26.9847C22.3926 26.9847 22.6797 26.8452 22.9054 26.5662C23.131 26.2913 23.3197 25.959 23.4715 25.5693C23.6274 25.1795 23.7402 24.7837 23.81 24.3816C23.8838 23.9837 23.9515 23.6719 24.0131 23.4462C24.1361 22.8513 24.2736 22.1888 24.4254 21.4585C24.5813 20.7324 24.7351 19.9754 24.8869 19.1878C25.0428 18.396 25.1967 17.5898 25.3484 16.7693C25.5043 15.9488 25.6541 15.1488 25.7977 14.3693C26.1464 12.5642 26.4849 10.6975 26.8131 8.76929L31.49 8.4616C31.49 8.4616 31.4387 8.72827 31.3361 9.2616C31.2336 9.79493 31.1002 10.5026 30.9361 11.3847C30.772 12.2667 30.5915 13.2719 30.3946 14.4001C30.2018 15.5283 29.9823 16.7016 29.7361 17.9201C29.49 19.1426 29.2479 20.3426 29.01 21.5201C28.7761 22.7016 28.5464 23.7847 28.3208 24.7693ZM33.2746 30.1539C33.09 30.1539 32.731 30.1785 32.1977 30.2278C31.6643 30.2811 31.1105 30.3426 30.5361 30.4124C29.9618 30.4862 29.4428 30.5539 28.9792 30.6154C28.5197 30.677 28.2695 30.718 28.2284 30.7385C28.4746 29.8565 28.7208 28.876 28.9669 27.797C29.2131 26.7221 29.4633 25.5939 29.7177 24.4124C29.9761 23.2349 30.2223 22.0411 30.4561 20.8308C30.6941 19.6206 30.9259 18.4513 31.1515 17.3231C31.6643 14.6975 32.1669 12.0001 32.6592 9.23083L37.4592 8.4616C36.9259 11.2103 36.3926 13.9078 35.8592 16.5539C35.6336 17.6821 35.4018 18.8513 35.1638 20.0616C34.93 21.2719 34.7043 22.4719 34.4869 23.6616C34.2736 24.8513 34.0582 26.0042 33.8408 27.1201C33.6274 28.2401 33.4387 29.2513 33.2746 30.1539ZM47.8223 29.5385C47.6377 29.5385 47.2479 29.5488 46.6531 29.5693C46.0582 29.5898 45.3567 29.6206 44.5485 29.6616C43.7361 29.7026 42.8582 29.7539 41.9146 29.8154C40.971 29.877 40.0479 29.9426 39.1454 30.0124C38.2428 30.0862 37.4079 30.1642 36.6408 30.2462C35.8695 30.3283 35.2582 30.4103 34.8069 30.4924L34.8377 26.0001L43.5761 14.0924C43.2274 14.0924 42.7351 14.1272 42.0992 14.197C41.4633 14.2708 40.8233 14.3488 40.1792 14.4308C39.531 14.5129 38.971 14.5949 38.4992 14.677L37.7608 14.7385L38.3454 9.90775L50.93 9.01545L50.13 13.2616L41.73 25.2001C42.1402 25.2001 42.69 25.1795 43.3792 25.1385C44.0643 25.0975 44.7761 25.0565 45.5146 25.0154C46.2531 24.9744 47.0531 24.9231 47.9146 24.8616L47.8223 29.5385ZM61.0838 29.5385C60.8992 29.5385 60.5095 29.5488 59.9146 29.5693C59.3197 29.5898 58.6182 29.6206 57.81 29.6616C56.9977 29.7026 56.1197 29.7539 55.1761 29.8154C54.2326 29.877 53.3095 29.9426 52.4069 30.0124C51.5043 30.0862 50.6695 30.1642 49.9023 30.2462C49.131 30.3283 48.5197 30.4103 48.0684 30.4924L48.0992 26.0001L56.8377 14.0924C56.489 14.0924 55.9967 14.1272 55.3608 14.197C54.7249 14.2708 54.0849 14.3488 53.4408 14.4308C52.7925 14.5129 52.2325 14.5949 51.7608 14.677L51.0223 14.7385L51.6069 9.90775L64.1915 9.01545L63.3915 13.2616L54.9915 25.2001C55.4018 25.2001 55.9515 25.1795 56.6408 25.1385C57.3259 25.0975 58.0377 25.0565 58.7761 25.0154C59.5146 24.9744 60.3146 24.9231 61.1761 24.8616L61.0838 29.5385Z" fill="#EBDCFF"/>
</g>
<g clip-path="url(#clip8_4_370)">
<path d="M87.5635 28.9067L93.6381 22.8304L99.6765 28.9067L102.542 26.0374L96.4695 20.0023L102.542 13.9631L99.6765 11.0938L93.6381 17.1305L87.6409 11.0938L84.7716 13.9631L90.7721 20.0023L84.6958 26.0374L87.5635 28.9067Z" fill="#EBDCFF"/>
<path d="M140.106 15.2033L137.24 12.334L127.604 21.9692L121.605 15.9333L118.735 18.8009L127.604 27.6691L140.106 15.2033Z" fill="#EBDCFF"/>
<path d="M93.6204 39.9888C101.466 39.9888 108.251 35.4339 111.52 28.8398C114.791 35.4339 121.575 39.9888 129.421 39.9888C140.444 39.9888 149.409 31.0238 149.409 20.0002C149.409 8.97671 140.444 0.0117188 129.421 0.0117188C121.576 0.0117188 114.791 4.56662 111.52 11.1607C108.251 4.56662 101.466 0.0117188 93.6204 0.0117188C82.5977 0.0117188 73.6327 8.97671 73.6327 20.0002C73.6327 31.0238 82.5977 39.9888 93.6204 39.9888ZM129.421 5.06421C137.657 5.06421 144.357 11.7635 144.357 20.0011C144.357 28.2386 137.657 34.938 129.421 34.938C121.186 34.938 114.485 28.2386 114.485 20.0011C114.485 11.7635 121.186 5.06421 129.421 5.06421ZM93.6204 5.06421C101.855 5.06421 108.556 11.7635 108.556 20.0011C108.556 28.2386 101.855 34.938 93.6204 34.938C85.3837 34.938 78.6843 28.2386 78.6843 20.0011C78.6843 11.7635 85.3828 5.06421 93.6204 5.06421Z" fill="#EBDCFF"/>
</g>
<g clip-path="url(#clip9_4_370)">
<path d="M174.297 18.5692C174.153 20.6615 173.743 22.481 173.066 24.0277C172.389 25.5784 171.575 26.8769 170.623 27.9231C169.667 28.9692 168.641 29.7487 167.546 30.2615C166.447 30.7743 165.405 31.0308 164.42 31.0308C163.661 31.0308 162.939 30.8667 162.254 30.5384C161.565 30.2102 160.97 29.7138 160.469 29.0492C159.965 28.3805 159.569 27.5436 159.281 26.5384C158.994 25.5333 158.851 24.3538 158.851 23C158.851 20.3538 159.23 18.0461 159.989 16.0769C160.748 14.1077 161.708 12.4667 162.869 11.1538C164.026 9.84101 165.267 8.86665 166.592 8.23076C167.913 7.59486 169.148 7.27691 170.297 7.27691C171.117 7.27691 171.831 7.4205 172.438 7.70768C173.041 7.99486 173.538 8.37845 173.928 8.85845C174.317 9.34255 174.6 9.90665 174.777 10.5508C174.949 11.199 175.035 11.882 175.035 12.6L170.82 13.4C170.635 12.5795 170.389 11.9949 170.081 11.6461C169.774 11.2974 169.425 11.1231 169.035 11.1231C168.523 11.1231 167.958 11.4861 167.343 12.2123C166.728 12.9425 166.153 13.882 165.62 15.0308C165.087 16.1795 164.635 17.441 164.266 18.8154C163.897 20.1897 163.692 21.5436 163.651 22.8769C163.651 24.1487 163.841 25.0554 164.223 25.5969C164.6 26.1425 165.087 26.4154 165.681 26.4154C166.092 26.4154 166.518 26.3128 166.961 26.1077C167.4 25.9025 167.794 25.6113 168.143 25.2338C168.492 24.8523 168.785 24.4092 169.023 23.9046C169.257 23.4041 169.384 22.8564 169.405 22.2615L166.112 22.7538L166.697 19.7077C167.661 19.5846 168.605 19.4615 169.528 19.3384C170.307 19.2359 171.134 19.1128 172.008 18.9692C172.877 18.8256 173.64 18.6923 174.297 18.5692ZM184.235 29.6769C183.723 29.759 183.158 29.8513 182.543 29.9538C181.928 30.0564 181.374 30.1487 180.881 30.2308C180.964 29.5538 181.046 28.8872 181.128 28.2308C181.189 27.6564 181.245 27.082 181.294 26.5077C181.347 25.9333 181.394 25.441 181.435 25.0308H178.758L177.528 29.4615C177.076 29.5231 176.543 29.5887 175.928 29.6584C175.312 29.7323 174.738 29.8 174.205 29.8615C173.548 29.9436 172.902 30.0256 172.266 30.1077C173.087 27.3795 173.897 24.6923 174.697 22.0461C175.025 20.9384 175.368 19.7795 175.725 18.5692C176.086 17.359 176.445 16.1528 176.801 14.9508C177.163 13.7528 177.507 12.6 177.835 11.4923C178.164 10.3846 178.451 9.36922 178.697 8.44614C180.092 8.34357 181.511 8.2205 182.955 8.07691C184.404 7.93332 185.815 7.73845 187.189 7.49229C187.128 8.1487 187.06 8.96306 186.986 9.93537C186.916 10.9118 186.851 11.9743 186.789 13.1231C186.728 14.2718 186.666 15.4718 186.605 16.7231C186.543 17.9743 186.481 19.2051 186.42 20.4154C186.317 23.2461 186.205 26.2513 186.081 29.4308C185.466 29.5333 184.851 29.6154 184.235 29.6769ZM181.405 14.2308L179.497 21.9538C179.579 21.9538 179.727 21.9477 179.94 21.9354C180.157 21.9272 180.383 21.9169 180.617 21.9046C180.855 21.8964 181.076 21.8861 181.281 21.8738C181.487 21.8656 181.63 21.8513 181.712 21.8308C181.712 21.7077 181.727 21.4964 181.755 21.1969C181.788 20.9015 181.819 20.5631 181.848 20.1815C181.88 19.8041 181.917 19.3897 181.958 18.9384C181.999 18.4872 182.04 18.0461 182.081 17.6154C182.164 16.5692 182.266 15.441 182.389 14.2308L182.574 11.5538L182.112 11.5846L181.405 14.2308ZM190.389 29.7692L185.312 30.1077C186.215 27.3795 187.076 24.7025 187.897 22.0769C188.246 20.9692 188.605 19.8102 188.974 18.6C189.343 17.3897 189.712 16.1897 190.081 15C190.451 13.8102 190.793 12.6615 191.109 11.5538C191.429 10.4461 191.712 9.4205 191.958 8.47691C193.087 8.47691 194.153 8.41537 195.158 8.29229C196.164 8.16922 197.251 8.0564 198.42 7.95383C198.358 8.40511 198.291 8.91178 198.217 9.47383C198.147 10.04 198.065 10.6308 197.971 11.2461C197.88 11.8615 197.784 12.4974 197.681 13.1538C197.579 13.8102 197.454 14.6513 197.306 15.6769C197.167 16.7025 196.974 17.9846 196.728 19.5231H197.128C197.723 17.9641 198.215 16.6656 198.605 15.6277C198.994 14.5938 199.312 13.7487 199.558 13.0923C199.8 12.4359 200.051 11.7938 200.309 11.1661C200.564 10.5425 200.81 9.94768 201.048 9.38152C201.286 8.81947 201.507 8.32306 201.712 7.89229C202.225 7.85127 202.705 7.79998 203.152 7.73845C203.608 7.67691 204.061 7.60922 204.512 7.53537C204.964 7.46563 205.419 7.39383 205.878 7.31998C206.342 7.25024 206.851 7.16409 207.405 7.06152C207.199 8.25127 207.005 9.47178 206.82 10.7231C206.631 11.9743 206.467 13.2195 206.328 14.4584C206.184 15.7015 206.045 16.9282 205.909 18.1384C205.778 19.3487 205.661 20.4974 205.558 21.5846C205.312 24.1282 205.097 26.6102 204.912 29.0308L199.558 29.9846C199.558 29.882 199.573 29.6051 199.601 29.1538C199.634 28.7025 199.675 28.1487 199.725 27.4923C199.778 26.8359 199.85 26.1077 199.94 25.3077C200.03 24.5077 200.123 23.7077 200.217 22.9077C200.311 22.1077 200.41 21.3323 200.512 20.5815C200.615 19.8349 200.717 19.1949 200.82 18.6615H200.537C200.254 19.5231 199.938 20.4297 199.589 21.3815C199.24 22.3374 198.886 23.3077 198.525 24.2923C198.168 25.2769 197.813 26.241 197.46 27.1846C197.115 28.1282 196.81 29.0308 196.543 29.8923C195.825 29.9128 195.21 29.9374 194.697 29.9661C194.184 29.999 193.589 30.0359 192.912 30.0769L193.897 18.6615H193.435C193.394 18.9282 193.292 19.3733 193.128 19.9969C192.964 20.6246 192.773 21.3425 192.555 22.1508C192.342 22.9631 192.112 23.8041 191.866 24.6738C191.62 25.5477 191.388 26.3579 191.171 27.1046C190.957 27.8554 190.779 28.4708 190.635 28.9508C190.492 29.4349 190.41 29.7077 190.389 29.7692ZM215.46 28.7846L205.521 30.3231L209.552 8.44614L219.275 7.61537C219.132 8.06665 219.009 8.52819 218.906 8.99999C218.804 9.38973 218.707 9.79383 218.617 10.2123C218.523 10.6349 218.445 11.0102 218.383 11.3384C218.178 11.359 217.887 11.3733 217.509 11.3815C217.128 11.3938 216.721 11.4041 216.291 11.4123C215.86 11.4246 215.425 11.4308 214.986 11.4308C214.543 11.4308 214.157 11.4308 213.829 11.4308L212.752 16.9384C213.388 16.8974 213.983 16.8667 214.537 16.8461C214.988 16.8256 215.45 16.8154 215.921 16.8154C216.393 16.8154 216.742 16.8051 216.968 16.7846C216.886 17.359 216.81 17.9231 216.74 18.4769C216.666 19.0308 216.578 19.5949 216.475 20.1692C216.27 20.1897 215.938 20.2041 215.478 20.2123C215.015 20.2246 214.547 20.241 214.075 20.2615C213.542 20.282 212.957 20.3025 212.321 20.3231L211.275 25.9846L215.768 25.2769L215.46 28.7846Z" fill="#EBDCFF"/>
</g>
</g>
</g>
</g>
</g>
</g>
</g>
</g>
<defs>
<clipPath id="clip0_4_370">
<rect width="219.78" height="40" fill="white"/>
</clipPath>
<clipPath id="clip1_4_370">
<rect width="218.776" height="39.977" fill="white" transform="translate(0.502075 0.0117188)"/>
</clipPath>
<clipPath id="clip2_4_370">
<rect width="218.776" height="39.977" fill="white" transform="translate(0.502075 0.0117188)"/>
</clipPath>
<clipPath id="clip3_4_370">
<rect width="218.776" height="39.977" fill="white" transform="translate(0.502075 0.0117188)"/>
</clipPath>
<clipPath id="clip4_4_370">
<rect width="218.776" height="39.977" fill="white" transform="translate(0.502075 0.0117188)"/>
</clipPath>
<clipPath id="clip5_4_370">
<rect width="218.776" height="39.977" fill="white" transform="translate(0.502075 0.0117188)"/>
</clipPath>
<clipPath id="clip6_4_370">
<rect width="218.776" height="39.977" fill="white" transform="translate(0.502075 0.0117188)"/>
</clipPath>
<clipPath id="clip7_4_370">
<rect width="63.6923" height="24.4923" fill="white" transform="translate(0.502075 7.75391)"/>
</clipPath>
<clipPath id="clip8_4_370">
<rect width="75.7764" height="39.977" fill="white" transform="translate(73.6327 0.0117188)"/>
</clipPath>
<clipPath id="clip9_4_370">
<rect width="60.4308" height="23.9692" fill="white" transform="translate(158.847 7.06152)"/>
</clipPath>
</defs>
</svg>
